<?xml version="1.0" encoding="utf-8"?>
<!-- Generator: Adobe Illustrator 21.1.0, SVG Export Plug-In . SVG Version: 6.00 Build 0)  -->
<svg version="1.1" id="Слой_1" xmlns="http://www.w3.org/2000/svg" xmlns:xlink="http://www.w3.org/1999/xlink" x="0px" y="0px"
	 viewBox="0 0 1051.8270264 346.02771" style="enable-background:new 0 0 1051.8270264 346.02771;" xml:space="preserve">
<style type="text/css">
	.st0{fill:#1F6EB9;}
</style>
<path class="st0" d="M1010.3726807,195.9667511c-3.7686157-82.9090271-71.6032715-150.7436523-154.5123291-154.5122528V0
	c105.5205078,3.7685916,192.1981201,90.4461975,195.9666748,195.9667511H1010.3726807z M859.6289673,124.3635178V82.9090118
	c60.2974854,0,113.0577393,48.991684,113.0577393,113.0577393l0,0h-41.4545288
	C931.2321777,158.280838,897.3148804,124.3635178,859.6289673,124.3635178z"/>
<g>
	<path d="M0,127.4199677h37.8699265v216.1787567H0V127.4199677z"/>
	<path d="M74.1941452,266.6444092c0-22.8912506,7.0109024-41.8262177,21.0511169-56.786499
		c14.0586014-14.9602814,32.9935684-22.596817,57.1177139-22.596817c24.1057281,0,43.0407104,7.6365356,57.0992889,22.596817
		c14.0402374,14.9602814,21.0695343,33.8952484,21.0695343,56.786499s-7.0292969,42.1390076-21.0695343,57.1177063
		c-14.0585785,14.941864-32.9935608,22.2655945-57.0992889,22.2655945c-24.1241455,0-43.0591125-7.3237305-57.1177139-22.2655945
		C81.2050476,308.7834167,74.1941452,289.5356445,74.1941452,266.6444092z M113.8857956,266.6444092
		c0,13.1385193,3.3490448,24.4369507,10.3783493,33.6007996c7.0293121,8.8326416,16.1747589,13.4329834,28.0988312,13.4329834
		c11.9056549,0,21.0511017-4.6003418,28.0804138-13.4329834c7.0293121-9.1638489,10.3783417-20.4622803,10.3783417-33.6007996
		c0-13.1385651-3.3490295-24.4369659-10.3783417-33.2696075c-7.0293121-9.1638489-16.1747589-13.7457886-28.0804138-13.7457886
		c-11.9240723,0-21.069519,4.5819397-28.0988312,13.7457886
		C117.2348404,242.2074432,113.8857956,253.5058441,113.8857956,266.6444092z"/>
	<path d="M401.7745361,302.0853577c-11.9240723,29.2949219-35.1281128,43.9423523-69.9250488,43.9423523
		c-24.124115,0-42.4518433-7.6181641-55.571991-22.5968018c-13.1385498-14.9418945-19.5422058-33.8952637-19.5422058-56.786499
		c0-22.8912811,6.403656-41.8262177,19.5422058-56.786499c13.1201477-14.9602814,31.447876-22.596817,55.571991-22.596817
		c34.796936,0,58.0009766,14.6474609,69.9250488,43.9791565l-33.8952637,13.7273865
		c-8.2437744-16.7819977-20.4622498-25.338623-36.0297852-25.338623c-23.2224731,0-35.4225464,18.934967-35.4225464,47.0153961
		s12.2000732,47.033783,35.4225464,47.033783c15.5675354,0,27.7860107-8.5382385,36.0297852-25.3570251L401.7745361,302.0853577z"/>
	<path d="M430.7382202,230.0257568c4.8763428-25.6698303,27.7860107-42.7646637,58.6266174-42.7646637
		c43.0591125,0,64.7358704,21.3823242,64.7358704,64.4414215v91.8962402h-31.1534424l-3.9746704-19.5422058
		c-11.9057007,14.6474304-27.7860107,21.9711609-47.3282471,21.9711609c-27.1603394,0-46.7025452-17.076416-46.7025452-46.7025452
		c0-30.5462036,26.5531006-50.3828278,65.6375122-50.3828278h25.6514587v-6.7348938
		c0-14.9418793-8.8510437-22.5784302-26.8659363-22.5784302c-13.7457886,0-22.5968323,5.7964172-26.5715332,17.7204895
		L430.7382202,230.0257568z M480.5137939,313.6781921c9.4582825,0,17.7020569-3.0546265,24.7313843-8.8694458
		c7.3237305-5.7780151,10.9855957-13.4329834,10.9855957-22.8912354v-3.0546265h-25.338623
		c-17.4076843,0-26.2586975,6.7348633-26.2586975,19.8366089
		C464.6334534,306.9432983,470.4298706,313.6781921,480.5137939,313.6781921z"/>
	<path d="M688.9824219,212.3052826l-22.5600586,20.7751007c-7.0292969-8.8694305-15.6043091-13.4513702-25.6514282-13.4513702
		c-7.6549683,0-14.0585938,4.5819397-14.0585938,12.8257294c0,6.403656,4.8947144,11.2984161,14.6473999,14.9418793
		l11.0040283,3.9746857l13.1385498,4.6003265c2.4289551,0.9200592,6.1092529,3.0546112,10.9671631,5.7779999
		c5.189209,2.7602234,8.8695068,5.1891785,11.0040283,7.9493713c4.5635376,5.1891785,9.458313,14.3530579,9.458313,25.0258179
		c0,14.3530273-5.189209,26.2770691-15.2731323,36.3610229c-10.0471191,10.0839233-23.1856689,14.941864-39.3788452,14.941864
		c-14.6474609,0-27.4915771-4.269104-38.1643677-12.5129089c-10.6727905-8.2437744-18.3276978-17.9964905-22.8912354-29.0004883
		l30.2149658-16.1931458c6.1092529,16.8187866,16.4876099,25.3570251,30.8406372,25.3570251
		c12.5128784,0,18.9165649-5.4835815,18.9165649-16.4876099c0-4.8947449-2.4289551-8.8694153-8.2438354-11.5928345
		c-2.7233276-1.5456848-5.7779541-2.7601624-8.538147-3.6802368c-5.189209-2.4289856-15.8619995-5.8148193-21.6767578-8.2438049
		c-19.5422363-8.2437744-31.1350708-19.5422211-31.1350708-41.513382c0-12.531311,4.5635376-22.9096527,13.727356-31.7606964
		c9.1638794-8.8694458,21.0879517-13.1385345,35.440979-13.1385345
		C661.1964111,187.2610931,679.2296753,197.3450165,688.9824219,212.3052826z"/>
	<path d="M818.159668,340.5441284c-7.9492798,3.6802673-16.1931152,5.4835815-25.062561,5.4835815
		c-35.4041748,0-56.4920654-19.210968-56.4920654-56.7864685v-67.164856h-23.8113403v-32.3679352h23.8113403v-38.4771576
		l37.869873-23.8113251v62.2884827h40.630188v32.3679352h-40.630188v66.5759888
		c0,18.2909241,6.7349243,25.0258179,20.1678467,25.0258179c5.18927,0,10.0839844-1.2144775,14.647522-3.6802673
		L818.159668,340.5441284z"/>
</g>
</svg>
